<svg width="20" height="20" viewBox="0 0 20 20" fill="none" xmlns="http://www.w3.org/2000/svg">
<path d="M11.9127 10.0144C11.9127 11.02 11.0975 11.8352 10.0919 11.8352C9.08637 11.8352 8.27112 11.02 8.27112 10.0144C8.27112 9.00886 9.08637 8.1936 10.0919 8.1936C11.0975 8.1936 11.9127 9.00886 11.9127 10.0144Z" fill="white"/>
<path d="M13.1456 4.552H7.04054C5.71165 4.552 4.63065 5.633 4.63065 6.96189V13.0669C4.63065 14.3958 5.71165 15.4768 7.04054 15.4768H13.1456C14.4745 15.4768 15.5555 14.3958 15.5555 13.0669V6.96189C15.5555 5.633 14.4745 4.552 13.1456 4.552ZM10.0931 13.0268C8.43204 13.0268 7.08071 11.6755 7.08071 10.0144C7.08071 8.35338 8.43204 7.00206 10.0931 7.00206C11.7541 7.00206 13.1054 8.35338 13.1054 10.0144C13.1054 11.6755 11.7541 13.0268 10.0931 13.0268ZM13.5472 7.16272C13.2145 7.16272 12.9448 6.89302 12.9448 6.56024C12.9448 6.22747 13.2145 5.95777 13.5472 5.95777C13.88 5.95777 14.1497 6.22747 14.1497 6.56024C14.1497 6.89302 13.88 7.16272 13.5472 7.16272Z" fill="white"/>
<path d="M14.7266 0H5.27344C2.36572 0 0 2.36572 0 5.27344V14.7266C0 17.6343 2.36572 20 5.27344 20H14.7266C17.6343 20 20 17.6343 20 14.7266V5.27344C20 2.36572 17.6343 0 14.7266 0ZM16.4844 12.9688C16.4844 14.9072 14.9072 16.4844 12.9688 16.4844H7.03125C5.09277 16.4844 3.51562 14.9072 3.51562 12.9688V7.03125C3.51562 5.09277 5.09277 3.51562 7.03125 3.51562H12.9688C14.9072 3.51562 16.4844 5.09277 16.4844 7.03125V12.9688Z" fill="white"/>
</svg>
