<svg width="20" height="20" viewBox="0 0 20 20" fill="none" xmlns="http://www.w3.org/2000/svg">
<path d="M17.2727 0H2.72734C2.00401 0 1.3103 0.287344 0.79882 0.79882C0.287344 1.3103 0 2.00401 0 2.72734L0 17.2727C0 17.996 0.287344 18.6897 0.79882 19.2012C1.3103 19.7127 2.00401 20 2.72734 20H17.2727C17.996 20 18.6897 19.7127 19.2012 19.2012C19.7127 18.6897 20 17.996 20 17.2727V2.72734C20 2.00401 19.7127 1.3103 19.2012 0.79882C18.6897 0.287344 17.996 0 17.2727 0V0ZM6.81836 15.8273C6.81857 15.9392 6.77437 16.0465 6.69549 16.1257C6.6166 16.205 6.50948 16.2497 6.39766 16.25H4.60078C4.54542 16.2502 4.49056 16.2395 4.43934 16.2185C4.38812 16.1974 4.34155 16.1665 4.30229 16.1275C4.26303 16.0885 4.23186 16.0421 4.21055 15.991C4.18925 15.9399 4.17823 15.8851 4.17812 15.8297V8.29531C4.17812 8.18322 4.22265 8.07571 4.30192 7.99645C4.38118 7.91719 4.48869 7.87266 4.60078 7.87266H6.39766C6.50958 7.87297 6.61683 7.91762 6.6959 7.99684C6.77497 8.07606 6.81943 8.18338 6.81953 8.29531L6.81836 15.8273ZM5.49766 7.15898C5.16048 7.15898 4.83088 7.059 4.55054 6.87167C4.2702 6.68433 4.05171 6.41808 3.92269 6.10656C3.79368 5.79505 3.75994 5.45227 3.82575 5.12158C3.89156 4.7909 4.05395 4.48715 4.2924 4.24876C4.53084 4.01037 4.83463 3.84805 5.16533 3.78232C5.49603 3.71659 5.8388 3.7504 6.15028 3.87948C6.46177 4.00857 6.72798 4.22712 6.91524 4.50751C7.10251 4.78789 7.20242 5.11752 7.20234 5.45469C7.20234 5.67853 7.15825 5.90018 7.07257 6.10698C6.9869 6.31378 6.86133 6.50168 6.70303 6.65995C6.54473 6.81821 6.3568 6.94374 6.14998 7.02936C5.94316 7.11499 5.7215 7.15904 5.49766 7.15898ZM16.2109 15.8566C16.2111 15.9075 16.2013 15.958 16.182 16.0051C16.1627 16.0522 16.1343 16.095 16.0984 16.1311C16.0625 16.1672 16.0198 16.1959 15.9729 16.2155C15.9259 16.2351 15.8755 16.2452 15.8246 16.2453H13.8887C13.786 16.2456 13.6873 16.2052 13.6145 16.1328C13.5416 16.0604 13.5004 15.9621 13.5 15.8594V12.3285C13.5 11.8012 13.6562 10.0191 12.1215 10.0191C10.934 10.0191 10.6922 11.2387 10.6441 11.7863V15.8613C10.6443 15.9634 10.6041 16.0615 10.5325 16.1342C10.4608 16.207 10.3634 16.2486 10.2613 16.25H8.39531C8.29254 16.25 8.19398 16.2092 8.12131 16.1365C8.04864 16.0638 8.00781 15.9653 8.00781 15.8625V8.2625C8.00745 8.21146 8.01717 8.16086 8.0364 8.11358C8.05564 8.06631 8.08401 8.02329 8.1199 7.987C8.15579 7.95072 8.19849 7.92187 8.24555 7.90211C8.29261 7.88235 8.3431 7.87208 8.39414 7.87188H10.2613C10.3646 7.87239 10.4634 7.91377 10.5363 7.98697C10.6091 8.06017 10.65 8.15924 10.65 8.2625V8.91914C11.091 8.25508 11.7438 7.74727 13.1387 7.74727C16.2273 7.74727 16.2066 10.6313 16.2066 12.2156L16.2109 15.8566Z" fill="white"/>
</svg>
